<?xml version="1.0" encoding="utf-8"?>
<!-- Generator: Adobe Illustrator 16.0.0, SVG Export Plug-In . SVG Version: 6.00 Build 0)  -->
<!DOCTYPE svg PUBLIC "-//W3C//DTD SVG 1.1//EN" "http://www.w3.org/Graphics/SVG/1.1/DTD/svg11.dtd">
<svg version="1.1" id="Calque_2" xmlns="http://www.w3.org/2000/svg" xmlns:xlink="http://www.w3.org/1999/xlink" x="0px" y="0px"
	 width="748.817px" height="657.755px" viewBox="0 0 748.817 657.755" enable-background="new 0 0 748.817 657.755"
	 xml:space="preserve">
<path stroke="#000000" stroke-miterlimit="10" d="M3.371,429.251c0,0,179.936,131.334,163.936,197.334
	c-10,6.666-61.333,34.666-84.667,23.333c22.667,10.667,26,8.007,72.667,2.67c7.333-0.003,39.333-9.337,58,1.33
	c14.667,0.667,6.667,4.667,56.667-12c8-1.333,27.333,2,27.333,2l-8.667-10.667c0,0,2-16.667-16.667-20
	c7-19.487,17.006-17.02,31.667-33.82c24.214-27.749,28.514-75.759,7.667-126.846c-3.333,27.333-15.838,90.668-37.667,108.584
	c-24.333,22.262-44.334,28.748-49.667,42.082C220.641,594.585,213.435,510.584,3.371,429.251z"/>
<path stroke="#000000" stroke-miterlimit="10" d="M164.02,193.759c0,0,327.224,238.474,298.128,358.314
	c-18.186,12.104-111.54,62.946-153.972,42.368c41.221,19.368,47.282,14.538,132.15,4.848c13.336-0.005,71.529-16.954,105.475,2.415
	c26.672,1.211,12.123,8.475,103.051-21.789c14.549-2.421,49.709,3.632,49.709,3.632l-15.762-19.369c0,0,3.637-30.264-30.311-36.315
	c12.73-35.385,30.928-30.904,57.59-61.41c44.033-50.387,51.854-137.562,13.941-230.324c-6.063,49.631-19.543,159.457-68.498,197.165
	c-44.252,40.422-80.625,52.199-90.322,76.411C559.136,493.969,546.031,341.442,164.02,193.759z"/>
<path stroke="#000000" stroke-miterlimit="10" d="M361.265,1.841c0,0,179.936,131.334,163.936,197.334
	c-10,6.666-61.332,34.666-84.666,23.333c22.666,10.667,26,8.007,72.666,2.67c7.334-0.003,39.334-9.337,58,1.33
	c14.667,0.667,6.667,4.667,56.667-12c8-1.333,27.333,2,27.333,2l-8.666-10.667c0,0,2-16.667-16.667-20
	c7.001-19.487,17.007-17.02,31.667-33.82c24.215-27.749,28.514-75.759,7.666-126.846c-3.333,27.333-8.479,86.497-37.666,108.584
	c-24.334,22.262-44.334,28.748-49.667,42.082C578.535,167.175,571.33,83.174,361.265,1.841z"/>
</svg>
